<svg xmlns="http://www.w3.org/2000/svg" viewBox="0 0 331 427" overflow="scroll"><style>.st0{fill:#F3F3F3;} .st1{fill:#D3CBD1;} .st2{fill:#F15726;} .st3{fill:#252E3C;} .st4{fill:#AE248C;} .st5{fill:#18222A;} .st6{fill:#563753;}</style><path class="st0" d="M331 0H118.6v298.4H331V0z"/><path class="st1" d="M226.5 30.5h78v7.6h-78zM226.5 50.9h78v7.6h-78zM226.5 71.2h78v7.6h-78zM226.5 91.5h78v7.6h-78zM145 111.8h159.5v7.6H145zM145 132.2h159.5v7.6H145zM145 152.5h159.5v7.6H145zM145 172.8h159.5v7.6H145zM145 193.1h159.5v7.6H145zM145 213.5h159.5v7.6H145zM145 233.8h159.5v7.6H145zM145 254.1h159.5v7.6H145zM186.4 30.5h-14.7L145 99.1h14.7l5.7-15.6h27.4l6 15.6h15.1l-27.5-68.6zM169.6 72l9.3-25.5 9.5 25.5h-18.8z"/><path class="st2" d="M287.3 273h17.1v25.4h-17.1zM287.3 0h17.1v13.5h-17.1z"/><path class="st3" d="M216.3 269.8c2.2-4.3 4.1-8.8 6-13.3 3.9-9.4 7.3-19 9.9-28.8 3.1-11.6 5.1-23.8 4.9-35.8-.1-7.2-1.2-14.5-2.9-21.4-3.9-15.8-11.5-30.5-21.7-43.2-11.5-14.4-26.7-25.4-43.7-32.6-20.1-8.5-42.7-10.9-64.3-8.8-20.4 2-40.3 8.4-57.2 20.2-14.3 10-26.2 23.3-34.4 38.6C5.6 158.2 1.1 173.2.1 188.5c-.7 11.1.9 22.3 3.3 33 2.3 10.5 5.7 20.8 9.7 30.8 2.3 5.9 4.8 11.8 7.7 17.5 1.6 3.1 6 4.1 8.9 2.3 3.2-1.9 4-5.7 2.3-8.9-.5-1.1-1.1-2.1-1.6-3.2-.6-1.2-1.2-2.5-1.7-3.8-.3-.7-.7-1.5-1-2.2-.2-.4-.4-.8-.5-1.2l-.3-.6c-.4-.9.8 1.8.2.5-4-9.4-7.3-19.1-9.9-29-1.5-5.8-2.7-11.7-3.5-17.6.1.6.2 1.2.2 1.7-1.1-8.4-1.4-16.9-.3-25.3-.1.6-.2 1.2-.2 1.7.9-7 2.7-13.9 5.1-20.5.3-.8.6-1.7.9-2.5.2-.4.3-.8.5-1.3l.3-.6c.5-1.3-.6 1.4-.2.5.7-1.8 1.5-3.5 2.4-5.2 1.7-3.5 3.6-6.9 5.7-10.2 1.1-1.7 2.2-3.3 3.4-5 .6-.8 1.1-1.6 1.7-2.3.3-.4 1-1.2-.4.5.1-.2.3-.4.5-.6.4-.4.7-.9 1.1-1.3 2.6-3.2 5.4-6.3 8.4-9.1 1.5-1.5 3.1-2.9 4.7-4.3.8-.7 1.6-1.3 2.4-2 .4-.3.8-.6 1.2-1 .9-.7-1.4 1.1-.5.4.3-.2.6-.4.8-.6 3.6-2.7 7.3-5.1 11.1-7.3 2.9-1.6 5.9-3.1 8.9-4.5.3-.2.7-.3 1-.5 1.5-.6-1.5.6 0 0 .8-.3 1.6-.6 2.4-1 1.6-.6 3.3-1.2 4.9-1.8 7.1-2.4 14.5-4 21.9-5-.6.1-1.2.2-1.7.2 12.3-1.6 24.9-1.6 37.2 0-.6-.1-1.2-.2-1.7-.2 10 1.4 19.9 3.9 29.2 7.7.4.2 1.5.6-.5-.2.3.1.5.2.8.3.5.2 1 .5 1.5.7 1.1.5 2.2 1 3.3 1.6 2 1 4.1 2.1 6 3.2 3.8 2.2 7.5 4.7 11 7.4-2-1.5-.3-.3.1.1.4.3.8.6 1.2 1 .9.7 1.7 1.4 2.5 2.2 1.6 1.4 3.1 2.8 4.6 4.3 2.9 2.9 5.7 6 8.3 9.2.4.5 1.6 2 0 0l.9 1.2c.6.8 1.2 1.7 1.8 2.5 1.1 1.6 2.2 3.3 3.3 5 2.1 3.3 3.9 6.7 5.6 10.2.6 1.2 1.2 2.5 1.7 3.7.2.5.7 1.7-.2-.5.1.3.3.7.4 1 .3.6.5 1.2.7 1.9 1 2.5 1.8 5 2.6 7.5 1.5 4.9 2.6 9.9 3.2 14.9-.1-.6-.2-1.2-.2-1.7 1.1 8.4.8 16.9-.3 25.3.1-.6.2-1.2.2-1.7-1.6 11.5-4.6 22.7-8.4 33.6-1.5 4.4-3.2 8.7-5 13-.2.5-.6 1.5.3-.7l-.3.6c-.2.4-.4.8-.5 1.2-.4.8-.7 1.6-1.1 2.4-.6 1.3-1.1 2.5-1.7 3.8-.5 1.1-1 2.1-1.6 3.2-1.6 3.1-.8 7 2.3 8.9 3.2 2 7.6 1.1 9.2-2zm0 0"/><path class="st4" d="M84.7 284.5c0 17.9-14.5 32.4-32.4 32.4s-32.4-14.5-32.4-32.4 14.5-32.4 32.4-32.4c17.9.1 32.4 14.6 32.4 32.4zm0 0"/><path class="st3" d="M89.2 326c0 9-7.3 16.2-16.2 16.2H59c-9 0-16.2-7.3-16.2-16.2v-82.9c0-9 7.3-16.2 16.2-16.2h14c9 0 16.2 7.3 16.2 16.2V326zm0 0"/><path class="st4" d="M217.2 284.5c0 17.9-14.5 32.4-32.4 32.4s-32.4-14.5-32.4-32.4 14.5-32.4 32.4-32.4c17.9.1 32.4 14.6 32.4 32.4zm0 0"/><path class="st3" d="M212.1 298.4c0 3.7-3 6.7-6.7 6.7s-6.7-3-6.7-6.7 3-6.7 6.7-6.7 6.7 3 6.7 6.7zm0 0M194.4 326c0 9-7.3 16.2-16.2 16.2h-14c-9 0-16.2-7.3-16.2-16.2v-82.9c0-9 7.3-16.2 16.2-16.2h14c9 0 16.2 7.3 16.2 16.2V326zm0 0M175.8 101.4c0 9-7.3 16.2-16.2 16.2h-82c-9 0-16.2-7.3-16.2-16.2v-2.9c0-9 7.3-16.2 16.2-16.2h81.9c9 0 16.2 7.3 16.2 16.2v2.9zm0 0"/><path class="st1" d="M200.9 300.1c0 .2.1.4.1.6-.1-.4-.1-.9-.2-1.3.6 4.4 1 8.9 1.3 13.3.6 8.3.9 16.6.7 24.9-.1 6.7-.6 13.4-1.5 20.1.1-.4.1-.9.2-1.3-1.1 8.5-3 17-6.3 24.9.2-.4.3-.8.5-1.2-.8 2-1.8 4-2.9 5.9-.5.9-1.1 1.8-1.6 2.7-.3.4-.6.8-.8 1.2-.3.5-1.6 2.1-.3.4-1.2 1.6-2.6 3.1-4.1 4.4-.3.3-.7.6-1.1.9-.2.2-.4.3-.6.4-.3.3-.8.7.6-.5-.1.1-.3.2-.4.3-.8.6-1.6 1.1-2.5 1.6-1.1.7-2.3 1.3-3.5 1.8.4-.2.8-.3 1.2-.5-2.5 1-5 1.7-7.7 2.1.4-.1.9-.1 1.3-.2-1.6.2-3.2.3-4.8.3-2.7 0-4.9 2.2-4.9 4.9s2.2 4.9 4.9 4.9c5.2 0 10.2-1 14.9-3.1 4-1.7 7.6-4.3 10.7-7.4 6.6-6.7 10.6-15.6 13.2-24.5 2.8-9.6 4.1-19.7 4.8-29.7.6-9 .5-17.9.1-26.9-.3-5.9-.8-11.8-1.5-17.6-.2-1.4-.3-2.8-.6-4.2-.2-1.2-1.3-2.3-2.2-2.9-1.1-.7-2.5-.8-3.8-.5-1.2.3-2.3 1.2-2.9 2.2-.5 1.5-.5 2.7-.3 4zm0 0"/><path class="st5" d="M171.2 406.1c0 11.6-10.6 21-23.7 21s-23.7-9.4-23.7-21 10.6-21 23.7-21 23.7 9.4 23.7 21zm0 0"/><path class="st6" d="M42.7 246.4h46.5v24.4H42.7zM42.7 279.5h46.5v8.8H42.7zM148 246.4h46.5v24.4H148zM148 279.5h46.5v8.8H148zM77.6 104.7c-5.3 0-10 2.5-13 6.5 3 3.9 7.7 6.5 13 6.5h81.9c5.3 0 10-2.6 13-6.5-3-3.9-7.7-6.5-13-6.5H77.6zm0 0M147.5 385.1c-11.9 0-21.8 7.8-23.5 17.9 1.7 10.1 11.5 17.9 23.5 17.9 11.9 0 21.8-7.8 23.5-17.9-1.7-10.1-11.6-17.9-23.5-17.9zm0 0"/></svg>